<svg xmlns="http://www.w3.org/2000/svg" width="1400" height="900" viewBox="0 0 1400 900" fill="none">
  <defs>
    <linearGradient id="wood" x1="0" y1="0" x2="1" y2="1">
      <stop offset="0%" stop-color="#7f5a3a"/>
      <stop offset="50%" stop-color="#6f4e33"/>
      <stop offset="100%" stop-color="#563f2b"/>
    </linearGradient>
    <filter id="grain" x="-20%" y="-20%" width="140%" height="140%">
      <feTurbulence type="fractalNoise" baseFrequency="0.012 0.68" numOctaves="4" seed="24"/>
      <feDisplacementMap scale="26" in="SourceGraphic"/>
      <feColorMatrix type="saturate" values="0.8"/>
      <feComponentTransfer>
        <feFuncA type="linear" slope="0.25"/>
      </feComponentTransfer>
    </filter>
  </defs>
  <rect width="1400" height="900" fill="url(#wood)"/>
  <g opacity="0.45" stroke="#9f744d" stroke-width="4">
    <path d="M0 148c140 39 190-39 314-8 130 31 197-15 315 18 139 38 207-26 320 9 128 40 246-22 451 13"/>
    <path d="M0 277c177 46 226-39 389-9 155 28 213-13 397 16 172 28 235-16 614 9"/>
    <path d="M0 408c193 39 251-20 433 4 176 23 250-24 438-5 190 20 302-9 529 7"/>
    <path d="M0 546c170 25 230-12 403 7 184 20 256-18 457 6 153 18 281-10 540 9"/>
    <path d="M0 686c169 21 247-19 452 7 152 20 233-12 444 10 145 15 275-7 504 7"/>
    <path d="M0 820c190 25 265-11 466 7 176 16 239-13 435 5 177 17 272-5 499 7"/>
  </g>
  <rect width="1400" height="900" filter="url(#grain)" opacity="0.28"/>
</svg>
