<svg xmlns="http://www.w3.org/2000/svg" width="1400" height="900" viewBox="0 0 1400 900" fill="none">
  <defs>
    <linearGradient id="bg" x1="0" y1="0" x2="1" y2="1">
      <stop offset="0%" stop-color="#f2eee4"/>
      <stop offset="60%" stop-color="#ddd5c5"/>
      <stop offset="100%" stop-color="#c8bdab"/>
    </linearGradient>
    <filter id="grain" x="-20%" y="-20%" width="140%" height="140%">
      <feTurbulence type="fractalNoise" baseFrequency="0.9" numOctaves="2" seed="17"/>
      <feColorMatrix type="saturate" values="0.15"/>
      <feBlend mode="multiply"/>
      <feComponentTransfer>
        <feFuncA type="linear" slope="0.1"/>
      </feComponentTransfer>
    </filter>
  </defs>
  <rect width="1400" height="900" fill="url(#bg)"/>
  <g stroke="#f7f3ea" stroke-width="8" opacity="0.6">
    <path d="M0 180h1400"/>
    <path d="M0 360h1400"/>
    <path d="M0 540h1400"/>
    <path d="M0 720h1400"/>
    <path d="M233 0v900"/>
    <path d="M466 0v900"/>
    <path d="M700 0v900"/>
    <path d="M933 0v900"/>
    <path d="M1166 0v900"/>
  </g>
  <g opacity="0.44">
    <path d="M132 122c160-72 292 43 468 5 128-27 184-86 310-31 92 39 186 58 352-7" stroke="#fefdf9" stroke-width="16"/>
    <path d="M170 756c182-58 258-98 439-42 168 52 300 34 537-63" stroke="#f4ede1" stroke-width="20"/>
  </g>
  <rect width="1400" height="900" filter="url(#grain)" opacity="0.22"/>
</svg>
